# xmcd CD database file generated by Grip 3.2.0
# 
# Track frame offsets:
#       150
#       17545
#       49597
#       67235
#       80740
#       100045
#       114795
#       139770
#       152640
#       173725
#       192895
#       210107
#       230475
#       264610
# 
# Disc length: 3739 seconds
# 
# Revision: 6
# Processed by: cddbd v1.5.2PL0 Copyright (c) Steve Scherf et al.
# Submitted via: Grip 3.2.0
# 
DISCID=b00e990e
DTITLE=Bob Marley - Legend
DYEAR=1995
DGENRE=Reggae
TTITLE0=Is This Love
TTITLE1=No Woman No Cry
TTITLE2=Could You Be Loved
TTITLE3=Three Little Birds
TTITLE4=Buffalo Soldier
TTITLE5=Get Up Stand Up
TTITLE6=Stir It Up
TTITLE7=One Love/People Get Ready
TTITLE8=I Shot The Sheriff
TTITLE9=Waiting In Vain
TTITLE10=Redemption Song
TTITLE11=Satisfy My Soul
TTITLE12=Exodus
TTITLE13=Jamming
EXTD=f YEAR: 1995
EXTT0=
EXTT1=
EXTT2=
EXTT3=
EXTT4=
EXTT5=
EXTT6=
EXTT7=
EXTT8=
EXTT9=
EXTT10=
EXTT11=
EXTT12=
EXTT13=
PLAYORDER=
